{"title":"Pirates Of The Caribbean On Stranger Tides 2011 DVDRip XViD DTRG","uid":6617889,"size":2046989791,"categoryP":"video","categoryS":"movies","magnet":"?xt=urn:btih:6241bcc2ca401a026be6cb62dd37d5678794c8f3&amp;dn=Pirates+Of+The+Caribbean+On+Stranger+Tides+2011+DVDRip+XViD+DTRG&amp;tr=udp%3A%2F%2Ftracker.openbittorrent.com%3A80&amp;tr=udp%3A%2F%2Fopen.demonii.com%3A1337&amp;tr=udp%3A%2F%2Ftracker.coppersurfer.tk%3A6969&amp;tr=udp%3A%2F%2Fexodus.desync.com%3A6969","seeders":0,"leechers":1,"uploader":"SAFCukO09","files":3,"time":1313861484,"description":"\nFormat : AVI\nFormat/Info : Audio Video Interleave\nFile size : 1.91 GiB\nDuration : 2h 15mn\nOverall bit rate : 2 014 Kbps\nWriting library : VirtualDub build 32842/release\n\nVideo\nID : 0\nFormat : MPEG-4 Visual\nFormat profile : Advanced Simple@L5\nFormat settings, BVOP : 2\nFormat settings, QPel : No\nFormat settings, GMC : No warppoints\nFormat settings, Matrix : Default (H.263)\nMuxing mode : Packed bitstream\nCodec ID : XVID\nCodec ID/Hint : XviD\nDuration : 2h 15mn\nBit rate : 1 618 Kbps\nWidth : 720 pixels\nHeight : 304 pixels\nDisplay aspect ratio : 2.35:1\nFrame rate : 29.970 fps\nColor space : YUV\nChroma subsampling : 4:2:0\nBit depth : 8 bits\nScan type : Progressive\nCompression mode : Lossy\nBits/(Pixel*Frame) : 0.247\nStream size : 1.53 GiB (80%)\nWriting library : XviD 64\n\nAudio\nID : 1\nFormat : AC-3\nFormat/Info : Audio Coding 3\nMode extension : CM (complete main)\nCodec ID : 2000\nDuration : 2h 15mn\nBit rate mode : Constant\nBit rate : 384 Kbps\nChannel(s) : 6 channels\nChannel positions : Front: L C R, Side: L R, LFE\nSampling rate : 48.0 KHz\nBit depth : 16 bits\nCompression mode : Lossy\nStream size : 372 MiB (19%)\nAlignment : Aligned on interleaves\nInterleave, duration : 33 ms (1.00 video frame)\nInterleave, preload duration : 512 ms\n\n\n\n\n\n\n\n &lt;a href=&quot;\nhttp://www.imdb.com/title/tt1298650/&quot; rel=&quot;nofollow&quot; target=&quot;_NEW&quot;&gt;\nhttp://www.imdb.com/title/tt1298650/&lt;/a&gt;\n\n\n\n\n\n\n\n\n\nUsers: (56,087 votes) 369 reviews | Critics: 328 reviews Metascore: 45/100 (based on 39 reviews from Metacritic.com)\n\n\nJack Sparrow and Barbossa embark on a quest to find the elusive fountain of youth, only to discover that Blackbeard and his daughter are after it too.\n\nDirector: Rob Marshall\nWriters: Ted Elliott (screenplay), Terry Rossio (screenplay), and 7 more credits Ã‚Â»\nStars: Johnny Depp, PenÃƒÂ©lope Cruz and Ian McShane\n\n\n\n\n\n\n\n\n\n\n\n\n\n\n\n\n\n\n\n\n\nSource Used\n\n\nPirates Of The Caribbean On Stranger Tides DVDR-MPTDVD....Thanks\n\n\n\nIf you think the files too big tough ! I wasnt going for a 1.39gb file on such a long movie.Maybe over did it but its up to you take or dont\n\n\nEnjoy\n\n\n\n\n\nGreetz to IMAGiNE,Flawl3ss,DiLLoN,BDK,NOiR,TOXiC,THC,Ez,Rx,Boobyblue,TaRiQ786","torrent":{"xt":"urn:btih:6241bcc2ca401a026be6cb62dd37d5678794c8f3","amp;dn":"Pirates+Of+The+Caribbean+On+Stranger+Tides+2011+DVDRip+XViD+DTRG","amp;tr":["udp%3A%2F%2Ftracker.openbittorrent.com%3A80","udp%3A%2F%2Fopen.demonii.com%3A1337","udp%3A%2F%2Ftracker.coppersurfer.tk%3A6969","udp%3A%2F%2Fexodus.desync.com%3A6969"],"infoHash":"6241bcc2ca401a026be6cb62dd37d5678794c8f3","infoHashBuffer":{"type":"Buffer","data":[98,65,188,194,202,64,26,2,107,230,203,98,221,55,213,103,135,148,200,243]},"announce":[],"urlList":[]}}